<svg xmlns="http://www.w3.org/2000/svg" version="1.1" xmlns:xlink="http://www.w3.org/1999/xlink" xmlns:svgjs="http://svgjs.dev/svgjs" width="1500" height="409" viewBox="0 0 1500 409"><g transform="matrix(1,0,0,1,-0.9084522071641459,0.7410562988903848)"><svg viewBox="0 0 396 108" data-background-color="#ffffff" preserveAspectRatio="xMidYMid meet" height="409" width="1500" xmlns="http://www.w3.org/2000/svg" xmlns:xlink="http://www.w3.org/1999/xlink"><g id="tight-bounds" transform="matrix(1,0,0,1,0.24008861730862918,-0.19554786802001445)"><svg viewBox="0 0 395.52 108.39098906906906" height="108.39098906906906" width="395.52"><g><svg viewBox="0 0 395.52 108.39098906906906" height="108.39098906906906" width="395.52"><g><svg viewBox="0 0 395.52 108.39098906906906" height="108.39098906906906" width="395.52"><g id="textblocktransform"><svg viewBox="0 0 395.52 108.39098906906906" height="108.39098906906906" width="395.52" id="textblock"><g><svg viewBox="0 0 395.52 108.39098906906906" height="108.39098906906906" width="395.52"><path d="M394.594 23.248C392.735 11.997 387.435 8.869 387.435 8.869 371.165-2.719 350.86-0.222 332.619 1.443 300.414 1.511 268.339 3.986 236.208 5.314 168.767 5.516 100.749 2.186 33.643 10.399 27.339 12.919-6.54 10.894 1.121 24.688 3.129 30.426 10.456 36.794 10.232 42.059 11.236 42.982 12.631 40.867 13.226 42.194 15.309 45.772 18.711 44.085 21.501 46.2 17.614 51.848 20.403 56.551 23.062 61.479 18.377 62.761 12.371 62.154 9.675 66.406 9.396 69.489 7.89 68.904 6.235 68.769 5.026 68.679 2.59 69.017 2.999 69.984 4.394 73.292-1.594 75.205 2.162 78.445-0.422 81.955 3.948 84.993 3.353 88.796 3.278 89.561 3.687 90.213 4.338 90.393 7.22 91.361 3.018 93.251 3.464 95.299 33.029 109.295 65.104 99.619 95.394 106.055 103.259 101.554 97.346 107.652 100.489 106.707 102.943 105.605 104.728 110.173 107.499 107.585 107.927 106.842 107.276 105.087 108.8 105.425 109.6 105.605 110.307 105.56 110.418 104.525 110.586 102.972 109.117 103.94 108.726 103.13 112.947 99.034 111.906 108.777 115.866 108.372 115.68 107.18 114.528 105.47 116.889 105.695 119.232 103.985 119.306 102.567 121.389 106.415 121.463 107.247 121.835 107.832 122.43 108.237 128.938 104.052 135.409 109.723 142.233 107.832 146.417 105.762 150.433 108.958 154.672 108.17 156.16 107.54 157.666 106.415 159.098 108.305 176.632 108.71 195.319 107.022 211.943 108.372 256.364 105.852 303.836 109.408 350.674 106.077 361.719 104.795 373.192 102.972 383.958 101.509 383.958 101.509 392.679 97.504 392.679 79.503S394.538 63.751 394.817 49.417C395.096 35.084 396.398 34.499 394.538 23.248Z" opacity="1" fill="#dedede" data-fill-palette-color="tertiary"></path><g transform="matrix(1,0,0,1,55.76832,26.230666666666668)"><svg width="283.98335999999995" viewBox="0.05 -38.85 199.78 39.35" height="55.92965573573572" data-palette-color="#ebe3d6"><path d="M8.7-36.25L8.7-36.25 30.15-36.25 9.55-5.25 30.6-5.25 30.6 0 0.05 0Q0.55-0.65 1.6-2.25 2.65-3.85 4.05-6.03 5.45-8.2 7.13-10.8 8.8-13.4 10.55-16.07 12.3-18.75 13.98-21.35 15.65-23.95 17.05-26.1 18.45-28.25 19.5-29.8 20.55-31.35 21.05-32L21.05-32 6.55-32Q5.75-32 4.98-32.23 4.2-32.45 3.6-32.85 3-33.25 2.63-33.85 2.25-34.45 2.25-35.2L2.25-35.2 2.25-38.1 7.15-38.1 7.15-37.4Q7.15-36.5 7.5-36.38 7.85-36.25 8.7-36.25ZM48.75-5.55L51.95-2.45Q50.45-1.1 48.3-0.3 46.15 0.5 43.9 0.5L43.9 0.5Q41.6 0.5 39.57-0.38 37.55-1.25 36.05-2.73 34.55-4.2 33.67-6.2 32.8-8.2 32.8-10.45L32.8-10.45Q32.8-12.7 33.67-14.7 34.55-16.7 36.05-18.2 37.55-19.7 39.52-20.58 41.5-21.45 43.75-21.45L43.75-21.45Q47.3-21.45 49.92-19.33 52.55-17.2 53.7-13.75L53.7-13.75Q52.15-13.2 50.15-12.4 48.15-11.6 46-10.73 43.85-9.85 41.7-9 39.55-8.15 37.7-7.45L37.7-7.45Q38.55-5.75 40.17-4.73 41.8-3.7 43.8-3.7L43.8-3.7Q45.15-3.7 46.52-4.2 47.9-4.7 48.75-5.55L48.75-5.55ZM48.35-14.75L48.35-14.75Q47.75-16 46.45-16.63 45.15-17.25 43.8-17.25L43.8-17.25Q42.35-17.25 41.12-16.7 39.9-16.15 39-15.23 38.1-14.3 37.57-13.1 37.05-11.9 37.05-10.65L37.05-10.65Q37.05-10.4 37.07-10.3 37.1-10.2 37.1-10.15L37.1-10.15Q38.4-10.65 39.92-11.28 41.45-11.9 42.95-12.53 44.45-13.15 45.85-13.73 47.25-14.3 48.35-14.75ZM57.4 0L57.4-20.9 61.15-20.9Q61.25-19.35 61.32-18.07 61.4-16.8 61.5-15.55L61.5-15.55Q62.65-18.25 64.77-19.85 66.9-21.45 70-21.45L70-21.45Q73.15-21.45 75.05-19.7 76.95-17.95 77.05-15.2L77.05-15.2 77.05 0 72.75 0 72.75-13.25Q72.65-14.85 71.65-15.98 70.65-17.1 68.5-17.2L68.5-17.2Q67-17.2 65.75-16.68 64.5-16.15 63.6-15.25 62.7-14.35 62.17-13.1 61.65-11.85 61.65-10.35L61.65-10.35 61.65 0 57.4 0ZM93.64-31.3L89.29-31.3 89.29-20.6 94.19-20.6Q96.89-20.6 98.24-22.2 99.59-23.8 99.59-26.1L99.59-26.1Q99.59-28.8 97.97-30.05 96.34-31.3 93.64-31.3L93.64-31.3ZM93.74-15.95L89.29-15.95 89.29-4.95 94.39-4.95Q95.84-4.95 97.12-5.3 98.39-5.65 99.34-6.33 100.29-7 100.84-8.05 101.39-9.1 101.39-10.5L101.39-10.5Q101.39-12.05 100.74-13.08 100.09-14.1 99.02-14.75 97.94-15.4 96.57-15.68 95.19-15.95 93.74-15.95L93.74-15.95ZM94.84 0L83.79 0 83.79-36.25 93.39-36.25Q96.04-36.25 98.19-35.73 100.34-35.2 101.84-34.08 103.34-32.95 104.17-31.18 104.99-29.4 104.99-26.85L104.99-26.85Q104.99-25.45 104.72-24.1 104.44-22.75 103.82-21.63 103.19-20.5 102.17-19.65 101.14-18.8 99.64-18.35L99.64-18.35Q100.94-18.1 102.22-17.5 103.49-16.9 104.49-15.88 105.49-14.85 106.12-13.35 106.74-11.85 106.74-9.8L106.74-9.8Q106.74-7.2 105.74-5.35 104.74-3.5 103.09-2.3 101.44-1.1 99.29-0.55 97.14 0 94.84 0L94.84 0ZM110.14-10.5L110.14-10.5Q110.14-12.75 111.02-14.75 111.89-16.75 113.39-18.23 114.89-19.7 116.92-20.58 118.94-21.45 121.29-21.45L121.29-21.45Q123.64-21.45 125.67-20.58 127.69-19.7 129.17-18.23 130.64-16.75 131.47-14.75 132.29-12.75 132.29-10.5L132.29-10.5Q132.29-8.25 131.47-6.25 130.64-4.25 129.17-2.75 127.69-1.25 125.67-0.38 123.64 0.5 121.24 0.5L121.24 0.5Q118.94 0.5 116.92-0.3 114.89-1.1 113.39-2.55 111.89-4 111.02-6.03 110.14-8.05 110.14-10.5ZM114.39-10.45L114.39-10.45Q114.39-9.05 114.92-7.83 115.44-6.6 116.37-5.68 117.29-4.75 118.52-4.23 119.74-3.7 121.14-3.7L121.14-3.7Q122.54-3.7 123.79-4.23 125.04-4.75 125.97-5.68 126.89-6.6 127.44-7.83 127.99-9.05 127.99-10.45L127.99-10.45Q127.99-11.85 127.44-13.1 126.89-14.35 125.97-15.28 125.04-16.2 123.79-16.73 122.54-17.25 121.14-17.25L121.14-17.25Q119.74-17.25 118.52-16.73 117.29-16.2 116.37-15.28 115.44-14.35 114.92-13.1 114.39-11.85 114.39-10.45ZM135.39-10.25L135.39-10.25Q135.39-12.55 136.26-14.58 137.14-16.6 138.64-18.13 140.14-19.65 142.11-20.55 144.09-21.45 146.34-21.45L146.34-21.45Q147.84-21.45 149.09-21.08 150.34-20.7 151.24-20.15 152.14-19.6 152.69-19 153.24-18.4 153.44-17.95L153.44-17.95 153.64-20.9 157.74-20.9 157.74 0 153.44 0 153.44-2.65Q153.19-2.25 152.64-1.7 152.09-1.15 151.21-0.68 150.34-0.2 149.14 0.15 147.94 0.5 146.39 0.5L146.39 0.5Q143.99 0.5 141.96-0.38 139.94-1.25 138.49-2.73 137.04-4.2 136.21-6.15 135.39-8.1 135.39-10.25ZM139.69-10.5L139.69-10.5Q139.69-9.05 140.21-7.8 140.74-6.55 141.64-5.65 142.54-4.75 143.79-4.23 145.04-3.7 146.54-3.7L146.54-3.7Q148.04-3.7 149.31-4.23 150.59-4.75 151.51-5.68 152.44-6.6 152.94-7.83 153.44-9.05 153.44-10.5L153.44-10.5Q153.44-11.95 152.94-13.18 152.44-14.4 151.51-15.3 150.59-16.2 149.31-16.73 148.04-17.25 146.54-17.25L146.54-17.25Q145.04-17.25 143.79-16.73 142.54-16.2 141.64-15.3 140.74-14.4 140.21-13.18 139.69-11.95 139.69-10.5ZM176.19-21.45L175.24-15.95Q173.84-15.95 172.54-15.58 171.24-15.2 170.21-14.45 169.19-13.7 168.59-12.58 167.99-11.45 167.99-10L167.99-10 167.99 0 163.74 0 163.74-20.9 167.49-20.9Q167.59-19.35 167.66-18.07 167.74-16.8 167.84-15.55L167.84-15.55Q168.49-16.9 169.54-18 170.59-19.1 171.79-19.85 172.99-20.6 174.14-21.03 175.29-21.45 176.19-21.45L176.19-21.45ZM177.48-10.45L177.48-10.45Q177.48-12.9 178.31-14.93 179.13-16.95 180.58-18.4 182.03-19.85 184.01-20.65 185.98-21.45 188.28-21.45L188.28-21.45Q189.83-21.45 191.06-21.08 192.28-20.7 193.16-20.18 194.03-19.65 194.63-19 195.23-18.35 195.53-17.85L195.53-17.85 195.53-38.85 199.83-38.85 199.83 0 195.53 0 195.53-1.55Q195.53-1.85 195.58-2.23 195.63-2.6 195.63-2.85L195.63-2.85Q195.13-2.25 194.46-1.68 193.78-1.1 192.88-0.6 191.98-0.1 190.81 0.2 189.63 0.5 188.13 0.5L188.13 0.5Q185.63 0.5 183.66-0.38 181.68-1.25 180.31-2.73 178.93-4.2 178.21-6.2 177.48-8.2 177.48-10.45ZM181.78-10.5L181.78-10.5Q181.78-9.05 182.31-7.8 182.83-6.55 183.73-5.65 184.63-4.75 185.88-4.23 187.13-3.7 188.63-3.7L188.63-3.7Q190.13-3.7 191.41-4.23 192.68-4.75 193.61-5.68 194.53-6.6 195.03-7.83 195.53-9.05 195.53-10.5L195.53-10.5Q195.53-11.95 195.03-13.18 194.53-14.4 193.61-15.3 192.68-16.2 191.41-16.73 190.13-17.25 188.63-17.25L188.63-17.25Q187.13-17.25 185.88-16.73 184.63-16.2 183.73-15.3 182.83-14.4 182.31-13.18 181.78-11.95 181.78-10.5Z" opacity="1" transform="matrix(1,0,0,1,0,0)" fill="black" class="wordmark-text-0" data-fill-palette-color="quaternary" id="text-0"></path></svg></g></svg></g></svg></g></svg></g><g></g></svg></g><defs></defs></svg><rect width="395.52" height="108.39098906906906" fill="none" stroke="none" visibility="hidden"></rect></g></svg></g></svg>